0
SECTION
2
HEADER
9
$INSUNITS
70
4
9
$ACADVER
1
AC1014
9
$HANDSEED
5
FFFF
0
ENDSEC
0
SECTION
2
TABLES
0
TABLE
2
VPORT
5
8
100
AcDbSymbolTable
0
ENDTAB
0
TABLE
2
LTYPE
5
5
100
AcDbSymbolTable
0
LTYPE
5
14
100
AcDbSymbolTableRecord
100
AcDbLinetypeTableRecord
2
BYBLOCK
70
0
0
LTYPE
5
15
100
AcDbSymbolTableRecord
100
AcDbLinetypeTableRecord
2
BYLAYER
70
0
0
LTYPE
5
16
100
AcDbSymbolTableRecord
100
AcDbLinetypeTableRecord
2
DASHED
70
0
3
Dashed __ __ __ __ __ __ __ __ __ __ __ __ __ _
72
65
73
2
40
0.75
49
0.5
74
0
49
-0.25
74
0
0
ENDTAB
0
TABLE
2
LAYER
5
2
100
AcDbSymbolTable
70
2
0
LAYER
5
50
100
AcDbSymbolTableRecord
100
AcDbLayerTableRecord
2
0
70
0
62
7
6
CONTINUOUS
0
ENDTAB
0
TABLE
2
STYLE
5
3
100
AcDbSymbolTable
70
1
0
STYLE
5
11
100
AcDbSymbolTableRecord
100
AcDbTextStyleTableRecord
2
STANDARD
70
0
0
ENDTAB
0
TABLE
2
VIEW
5
6
100
AcDbSymbolTable
70
0
0
ENDTAB
0
TABLE
2
UCS
5
7
100
AcDbSymbolTable
70
0
0
ENDTAB
0
TABLE
2
APPID
5
9
100
AcDbSymbolTable
70
2
0
APPID
5
12
100
AcDbSymbolTableRecord
100
AcDbRegAppTableRecord
2
ACAD
70
0
0
ENDTAB
0
TABLE
2
DIMSTYLE
5
A
100
AcDbSymbolTable
70
1
0
ENDTAB
0
TABLE
2
BLOCK_RECORD
5
1
100
AcDbSymbolTable
70
1
0
BLOCK_RECORD
5
1F
100
AcDbSymbolTableRecord
100
AcDbBlockTableRecord
2
*MODEL_SPACE
0
BLOCK_RECORD
5
1B
100
AcDbSymbolTableRecord
100
AcDbBlockTableRecord
2
*PAPER_SPACE
0
ENDTAB
0
ENDSEC
0
SECTION
2
BLOCKS
0
BLOCK
5
20
100
AcDbEntity
100
AcDbBlockBegin
2
*MODEL_SPACE
0
ENDBLK
5
21
100
AcDbEntity
100
AcDbBlockEnd
0
BLOCK
5
1C
100
AcDbEntity
100
AcDbBlockBegin
2
*PAPER_SPACE
0
ENDBLK
5
1D
100
AcDbEntity
100
AcDbBlockEnd
0
ENDSEC
0
SECTION
2
ENTITIES
0
LWPOLYLINE
5
100
100
AcDbEntity
8
0
100
AcDbPolyline
90
4
70
1
43
0.0
10
218.99999999999994
20
-267.8526721356825
10
218.99999999999994
20
-279.8526721356825
10
160.28757143504009
20
-279.8526721356825
10
160.28757143504009
20
-267.8526721356825
0
LINE
5
101
100
AcDbEntity
8
0
100
AcDbLine
10
225
20
-279.90000000000003
30
0
11
225
21
20.09999999999998
31
0
0
LINE
5
102
100
AcDbEntity
8
0
100
AcDbLine
10
225
20
20.09999999999998
30
0
11
-75
21
20.099999999999998
31
0
0
LINE
5
103
100
AcDbEntity
8
0
100
AcDbLine
10
-10.299999999999997
20
0.29999999999999571
30
0
11
1.9999999999961204
21
0.30000000000001137
31
0
0
LINE
5
104
100
AcDbEntity
8
0
100
AcDbLine
10
160.30000000000001
20
-93.449999999999704
30
0
11
198.40000000000083
21
-93.449999999999704
31
0
0
LINE
5
105
100
AcDbEntity
8
0
100
AcDbLine
10
198.40000000000083
20
-93.449999999999704
30
0
11
198.40000000000083
21
-178.04999999999984
31
0
0
LINE
5
106
100
AcDbEntity
8
0
100
AcDbLine
10
198.40000000000083
20
-178.04999999999984
30
0
11
128.0000000000002
21
-178.04999999999984
31
0
0
LINE
5
107
100
AcDbEntity
8
0
100
AcDbLine
10
160.30000000000001
20
-238.04999999999984
30
0
11
160.30000000000001
21
-260.30000000000001
31
0
0
LINE
5
108
100
AcDbEntity
8
0
100
AcDbLine
10
128.0000000000002
20
-260.30000000000001
30
0
11
21.999999999999815
21
-260.30000000000081
31
0
0
CIRCLE
5
109
100
AcDbEntity
8
0
100
AcDbCircle
10
87.500000000000455
20
-272.87
30
0
40
0.63549999999999995
210
0
220
-0
230
1
0
CIRCLE
5
110
100
AcDbEntity
8
0
100
AcDbCircle
10
112.50000000000054
20
-272.87
30
0
40
0.63549999999999995
210
0
220
-0
230
1
0
LINE
5
111
100
AcDbEntity
8
0
100
AcDbLine
10
160.30000000000001
20
-76
30
0
11
160.30000000000001
21
-93.449999999999704
31
0
0
LINE
5
112
100
AcDbEntity
8
0
100
AcDbLine
10
-75
20
20.099999999999998
30
0
11
-75
21
-279.90000000000003
31
0
0
LINE
5
113
100
AcDbEntity
8
0
100
AcDbLine
10
-75
20
-279.90000000000003
30
0
11
225
21
-279.90000000000003
31
0
0
LWPOLYLINE
5
114
100
AcDbEntity
8
0
100
AcDbPolyline
90
4
70
1
43
0.0
10
-69
20
-279.8515960169965
10
-69
20
-267.8515960169965
10
-8.4495945963328367
20
-267.8515960169965
10
-8.4495945963328385
20
-279.8515960169965
0
CIRCLE
5
115
100
AcDbEntity
8
0
100
AcDbCircle
10
62.500000000000398
20
-272.87
30
0
40
0.63549999999999995
210
0
220
-0
230
1
0
LINE
5
116
100
AcDbEntity
8
0
100
AcDbLine
10
21.999999999999815
20
-260.30000000000081
30
0
11
21.999999999997932
21
-178.05000000000067
31
0
0
LINE
5
117
100
AcDbEntity
8
0
100
AcDbLine
10
128.0000000000002
20
-178.04999999999984
30
0
11
128.0000000000002
21
-260.30000000000001
31
0
0
LWPOLYLINE
5
118
100
AcDbEntity
8
0
100
AcDbPolyline
90
4
70
1
43
0.0
10
1.9999999999998175
20
-260.30000000000121
10
-10.300000000000002
20
-260.30000000000001
10
-10.300000000000507
20
-238.05000000000121
10
1.9999999999993068
20
-238.05000000000098
0
LINE
5
119
100
AcDbEntity
8
0
100
AcDbLine
10
21.999999999997932
20
-178.05000000000067
30
0
11
-48.400000000000816
21
-178.04999999999984
31
0
0
LINE
5
120
100
AcDbEntity
8
0
100
AcDbLine
10
-48.400000000000816
20
-178.04999999999984
30
0
11
-48.400000000000816
21
-93.449999999999704
31
0
0
LINE
5
121
100
AcDbEntity
8
0
100
AcDbLine
10
-48.400000000000816
20
-93.449999999999704
30
0
11
-10.299999999999997
21
-93.449999999999704
31
0
0
LINE
5
122
100
AcDbEntity
8
0
100
AcDbLine
10
-10.300000000000002
20
-15.999999999999977
30
0
11
-10.299999999999997
21
0.29999999999999583
31
0
0
LINE
5
123
100
AcDbEntity
8
0
100
AcDbLine
10
128.0000000000002
20
0.29999999999929622
30
0
11
127.99999999998658
21
-76
31
0
0
LINE
5
124
100
AcDbEntity
8
0
100
AcDbLine
10
148.0000000000002
20
-260.30000000000001
30
0
11
148.0000000000002
21
-238.04999999999984
31
0
0
LINE
5
125
100
AcDbEntity
8
0
100
AcDbLine
10
160.30000000000001
20
-260.30000000000001
30
0
11
148.0000000000002
21
-260.30000000000001
31
0
0
LINE
5
126
100
AcDbEntity
8
0
100
AcDbLine
10
1.9999999999961204
20
0.30000000000001137
30
0
11
1.9999999999968843
21
-15.999999999999979
31
0
0
LINE
5
127
100
AcDbEntity
8
0
100
AcDbLine
10
1.9999999999968843
20
-15.999999999999979
30
0
11
-10.300000000000002
21
-15.999999999999977
31
0
0
LINE
5
128
100
AcDbEntity
8
0
100
AcDbLine
10
-10.300000000000002
20
-75.999999999999972
30
0
11
22.000000000013422
21
-75.999999999999986
31
0
0
LINE
5
129
100
AcDbEntity
8
0
100
AcDbLine
10
22.000000000013422
20
-75.999999999999986
30
0
11
21.999999999999815
21
0.29999999999930971
31
0
0
LINE
5
130
100
AcDbEntity
8
0
100
AcDbLine
10
21.999999999999815
20
0.29999999999930971
30
0
11
128.0000000000002
21
0.29999999999929622
31
0
0
LINE
5
131
100
AcDbEntity
8
0
100
AcDbLine
10
127.99999999998658
20
-76
30
0
11
160.30000000000001
21
-76
31
0
0
LINE
5
132
100
AcDbEntity
8
0
100
AcDbLine
10
-10.299999999999997
20
-93.449999999999704
30
0
11
-10.300000000000002
21
-75.999999999999972
31
0
0
LWPOLYLINE
5
133
100
AcDbEntity
8
0
100
AcDbPolyline
90
4
70
1
43
0.0
10
148.00000000000389
20
0.29999999999999361
10
160.30000000000001
20
0.29999999999999782
10
160.30000000000001
20
-15.999999999999996
10
148.00000000000313
20
-15.999999999999996
0
LINE
5
134
100
AcDbEntity
8
0
100
AcDbLine
10
148.0000000000002
20
-238.04999999999984
30
0
11
160.30000000000001
21
-238.04999999999984
31
0
0
ENDSEC
0
SECTION
2
OBJECTS
0
DICTIONARY
5
C
100
AcDbDictionary
3
ACAD_GROUP
350
D
3
ACAD_MLINESTYLE
350
17
0
DICTIONARY
5
D
100
AcDbDictionary
0
DICTIONARY
5
1A
330
C
100
AcDbDictionary
0
DICTIONARY
5
17
100
AcDbDictionary
0
ENDSEC
0
EOF
