0
SECTION
2
HEADER
9
$INSUNITS
70
4
9
$ACADVER
1
AC1014
9
$HANDSEED
5
FFFF
0
ENDSEC
0
SECTION
2
TABLES
0
TABLE
2
VPORT
5
8
100
AcDbSymbolTable
0
ENDTAB
0
TABLE
2
LTYPE
5
5
100
AcDbSymbolTable
0
LTYPE
5
14
100
AcDbSymbolTableRecord
100
AcDbLinetypeTableRecord
2
BYBLOCK
70
0
0
LTYPE
5
15
100
AcDbSymbolTableRecord
100
AcDbLinetypeTableRecord
2
BYLAYER
70
0
0
LTYPE
5
16
100
AcDbSymbolTableRecord
100
AcDbLinetypeTableRecord
2
DASHED
70
0
3
Dashed __ __ __ __ __ __ __ __ __ __ __ __ __ _
72
65
73
2
40
0.75
49
0.5
74
0
49
-0.25
74
0
0
ENDTAB
0
TABLE
2
LAYER
5
2
100
AcDbSymbolTable
70
2
0
LAYER
5
50
100
AcDbSymbolTableRecord
100
AcDbLayerTableRecord
2
0
70
0
62
7
6
CONTINUOUS
0
ENDTAB
0
TABLE
2
STYLE
5
3
100
AcDbSymbolTable
70
1
0
STYLE
5
11
100
AcDbSymbolTableRecord
100
AcDbTextStyleTableRecord
2
STANDARD
70
0
0
ENDTAB
0
TABLE
2
VIEW
5
6
100
AcDbSymbolTable
70
0
0
ENDTAB
0
TABLE
2
UCS
5
7
100
AcDbSymbolTable
70
0
0
ENDTAB
0
TABLE
2
APPID
5
9
100
AcDbSymbolTable
70
2
0
APPID
5
12
100
AcDbSymbolTableRecord
100
AcDbRegAppTableRecord
2
ACAD
70
0
0
ENDTAB
0
TABLE
2
DIMSTYLE
5
A
100
AcDbSymbolTable
70
1
0
ENDTAB
0
TABLE
2
BLOCK_RECORD
5
1
100
AcDbSymbolTable
70
1
0
BLOCK_RECORD
5
1F
100
AcDbSymbolTableRecord
100
AcDbBlockTableRecord
2
*MODEL_SPACE
0
BLOCK_RECORD
5
1B
100
AcDbSymbolTableRecord
100
AcDbBlockTableRecord
2
*PAPER_SPACE
0
ENDTAB
0
ENDSEC
0
SECTION
2
BLOCKS
0
BLOCK
5
20
100
AcDbEntity
100
AcDbBlockBegin
2
*MODEL_SPACE
0
ENDBLK
5
21
100
AcDbEntity
100
AcDbBlockEnd
0
BLOCK
5
1C
100
AcDbEntity
100
AcDbBlockBegin
2
*PAPER_SPACE
0
ENDBLK
5
1D
100
AcDbEntity
100
AcDbBlockEnd
0
ENDSEC
0
SECTION
2
ENTITIES
0
SPLINE
5
100
100
AcDbEntity
8
0
100
AcDbSpline
70
4
71
3
72
8
73
4
74
0
42
0.000000001
43
0.0000000001
44
0.0000000001
40
-1
40
-1
40
-1
40
-1
40
0
40
0
40
0
40
0
41
1
41
1
41
1
41
1
10
-33.958958333333335
20
139.31604166666665
30
0
10
-35.176041666666663
20
154.37083333333331
30
0
10
-27.926458333333333
20
168.04979166666666
30
0
10
-17.316666666666663
20
170.6427083333333
30
0
0
SPLINE
5
101
100
AcDbEntity
8
0
100
AcDbSpline
70
4
71
3
72
8
73
4
74
0
42
0.000000001
43
0.0000000001
44
0.0000000001
40
-1
40
-1
40
-1
40
-1
40
0
40
0
40
0
40
0
41
1
41
1
41
1
41
1
10
-17.316666666666663
20
170.6427083333333
30
0
10
-12.633541666666659
20
171.78041666666667
30
0
10
-7.3947916666666647
20
170.21937500000001
30
0
10
-3.399583333333327
20
166.46229166666666
30
0
0
SPLINE
5
102
100
AcDbEntity
8
0
100
AcDbSpline
70
4
71
3
72
8
73
4
74
0
42
0.000000001
43
0.0000000001
44
0.0000000001
40
-1
40
-1
40
-1
40
-1
40
0
40
0
40
0
40
0
41
1
41
1
41
1
41
1
10
-3.399583333333327
20
166.46229166666666
30
0
10
0.013541666666672114
20
163.28729166666665
30
0
10
2.3154166666666676
20
159.583125
30
0
10
3.9558333333333451
20
154.63541666666663
30
0
0
SPLINE
5
103
100
AcDbEntity
8
0
100
AcDbSpline
70
4
71
3
72
8
73
4
74
0
42
0.000000001
43
0.0000000001
44
0.0000000001
40
-1
40
-1
40
-1
40
-1
40
0
40
0
40
0
40
0
41
1
41
1
41
1
41
1
10
3.9558333333333451
20
154.63541666666663
30
0
10
5.3581250000000047
20
150.40208333333334
30
0
10
5.8079166666666815
20
147.518125
30
0
10
5.8079166666666815
20
142.46458333333328
30
0
0
SPLINE
5
104
100
AcDbEntity
8
0
100
AcDbSpline
70
4
71
3
72
8
73
4
74
0
42
0.000000001
43
0.0000000001
44
0.0000000001
40
-1
40
-1
40
-1
40
-1
40
0
40
0
40
0
40
0
41
1
41
1
41
1
41
1
10
5.8079166666666815
20
142.46458333333328
30
0
10
5.8079166666666815
20
137.78145833333332
30
0
10
5.463958333333343
20
135.24145833333333
30
0
10
4.2204166666666776
20
131.08749999999998
30
0
0
SPLINE
5
105
100
AcDbEntity
8
0
100
AcDbSpline
70
4
71
3
72
8
73
4
74
0
42
0.000000001
43
0.0000000001
44
0.0000000001
40
-1
40
-1
40
-1
40
-1
40
0
40
0
40
0
40
0
41
1
41
1
41
1
41
1
10
4.2204166666666776
20
131.08749999999998
30
0
10
1.5481250000000113
20
122.2239583333333
30
0
10
-4.4843749999999982
20
115.71520833333331
30
0
10
-11.363541666666661
20
114.28645833333331
30
0
0
SPLINE
5
106
100
AcDbEntity
8
0
100
AcDbSpline
70
4
71
3
72
8
73
4
74
0
42
0.000000001
43
0.0000000001
44
0.0000000001
40
-1
40
-1
40
-1
40
-1
40
0
40
0
40
0
40
0
41
1
41
1
41
1
41
1
10
-11.363541666666661
20
114.28645833333331
30
0
10
-13.691874999999989
20
113.81020833333331
30
0
10
-14.591458333333325
20
113.81020833333331
30
0
10
-16.919791666666661
20
114.28645833333331
30
0
0
SPLINE
5
107
100
AcDbEntity
8
0
100
AcDbSpline
70
4
71
3
72
8
73
4
74
0
42
0.000000001
43
0.0000000001
44
0.0000000001
40
-1
40
-1
40
-1
40
-1
40
0
40
0
40
0
40
0
41
1
41
1
41
1
41
1
10
-16.919791666666661
20
114.28645833333331
30
0
10
-20.015416666666663
20
114.94791666666664
30
0
10
-22.846458333333324
20
116.5089583333333
30
0
10
-25.359999999999996
20
118.99604166666666
30
0
0
SPLINE
5
108
100
AcDbEntity
8
0
100
AcDbSpline
70
4
71
3
72
8
73
4
74
0
42
0.000000001
43
0.0000000001
44
0.0000000001
40
-1
40
-1
40
-1
40
-1
40
0
40
0
40
0
40
0
41
1
41
1
41
1
41
1
10
-25.359999999999996
20
118.99604166666666
30
0
10
-30.413541666666667
20
124.04958333333329
30
0
10
-33.271041666666662
20
130.79645833333333
30
0
10
-33.958958333333335
20
139.31604166666665
30
0
0
SPLINE
5
109
100
AcDbEntity
8
0
100
AcDbSpline
70
4
71
3
72
8
73
4
74
0
42
0.000000001
43
0.0000000001
44
0.0000000001
40
-1
40
-1
40
-1
40
-1
40
0
40
0
40
0
40
0
41
1
41
1
41
1
41
1
10
59.09500000000002
20
129.92333333333332
30
0
10
57.057708333333352
20
133.73333333333332
30
0
10
57.375208333333354
20
136.32625000000002
30
0
10
60.073958333333344
20
137.99312499999999
30
0
0
SPLINE
5
110
100
AcDbEntity
8
0
100
AcDbSpline
70
4
71
3
72
8
73
4
74
0
42
0.000000001
43
0.0000000001
44
0.0000000001
40
-1
40
-1
40
-1
40
-1
40
0
40
0
40
0
40
0
41
1
41
1
41
1
41
1
10
60.073958333333344
20
137.99312499999999
30
0
10
62.375833333333361
20
139.42187499999994
30
0
10
65.736041666666679
20
137.83437499999997
30
0
10
66.450416666666683
20
134.9239583333333
30
0
0
SPLINE
5
111
100
AcDbEntity
8
0
100
AcDbSpline
70
4
71
3
72
8
73
4
74
0
42
0.000000001
43
0.0000000001
44
0.0000000001
40
-1
40
-1
40
-1
40
-1
40
0
40
0
40
0
40
0
41
1
41
1
41
1
41
1
10
66.450416666666683
20
134.9239583333333
30
0
10
66.767916666666693
20
133.706875
30
0
10
68.85812500000003
20
131.77541666666662
30
0
10
70.65729166666668
20
131.11395833333333
30
0
0
SPLINE
5
112
100
AcDbEntity
8
0
100
AcDbSpline
70
4
71
3
72
8
73
4
74
0
42
0.000000001
43
0.0000000001
44
0.0000000001
40
-1
40
-1
40
-1
40
-1
40
0
40
0
40
0
40
0
41
1
41
1
41
1
41
1
10
70.65729166666668
20
131.11395833333333
30
0
10
72.853333333333367
20
130.29374999999999
30
0
10
75.975416666666689
20
129.97624999999999
30
0
10
78.78000000000003
20
130.29374999999999
30
0
0
SPLINE
5
113
100
AcDbEntity
8
0
100
AcDbSpline
70
4
71
3
72
8
73
4
74
0
42
0.000000001
43
0.0000000001
44
0.0000000001
40
-1
40
-1
40
-1
40
-1
40
0
40
0
40
0
40
0
41
1
41
1
41
1
41
1
10
78.78000000000003
20
130.29374999999999
30
0
10
81.372916666666697
20
130.58479166666666
30
0
10
82.907500000000027
20
131.08749999999998
30
0
10
84.283333333333346
20
132.11937500000002
30
0
0
SPLINE
5
114
100
AcDbEntity
8
0
100
AcDbSpline
70
4
71
3
72
8
73
4
74
0
42
0.000000001
43
0.0000000001
44
0.0000000001
40
-1
40
-1
40
-1
40
-1
40
0
40
0
40
0
40
0
41
1
41
1
41
1
41
1
10
84.283333333333346
20
132.11937500000002
30
0
10
85.526875000000018
20
133.01895833333333
30
0
10
85.765000000000029
20
133.33645833333333
30
0
10
86.638125000000031
20
135.215
30
0
0
SPLINE
5
115
100
AcDbEntity
8
0
100
AcDbSpline
70
4
71
3
72
8
73
4
74
0
42
0.000000001
43
0.0000000001
44
0.0000000001
40
-1
40
-1
40
-1
40
-1
40
0
40
0
40
0
40
0
41
1
41
1
41
1
41
1
10
86.638125000000031
20
135.215
30
0
10
87.431875000000019
20
136.88187500000001
30
0
10
88.622500000000002
20
138.12541666666664
30
0
10
89.733750000000015
20
138.38999999999999
30
0
0
SPLINE
5
116
100
AcDbEntity
8
0
100
AcDbSpline
70
4
71
3
72
8
73
4
74
0
42
0.000000001
43
0.0000000001
44
0.0000000001
40
-1
40
-1
40
-1
40
-1
40
0
40
0
40
0
40
0
41
1
41
1
41
1
41
1
10
89.733750000000015
20
138.38999999999999
30
0
10
90.924375000000026
20
138.68104166666666
30
0
10
92.697083333333381
20
138.33708333333334
30
0
10
93.649583333333339
20
137.59624999999997
30
0
0
SPLINE
5
117
100
AcDbEntity
8
0
100
AcDbSpline
70
4
71
3
72
8
73
4
74
0
42
0.000000001
43
0.0000000001
44
0.0000000001
40
-1
40
-1
40
-1
40
-1
40
0
40
0
40
0
40
0
41
1
41
1
41
1
41
1
10
93.649583333333339
20
137.59624999999997
30
0
10
94.840208333333322
20
136.69666666666666
30
0
10
95.528125000000017
20
134.9239583333333
30
0
10
95.289999999999992
20
133.41583333333332
30
0
0
SPLINE
5
118
100
AcDbEntity
8
0
100
AcDbSpline
70
4
71
3
72
8
73
4
74
0
42
0.000000001
43
0.0000000001
44
0.0000000001
40
-1
40
-1
40
-1
40
-1
40
0
40
0
40
0
40
0
41
1
41
1
41
1
41
1
10
95.289999999999992
20
133.41583333333332
30
0
10
94.893124999999998
20
130.92874999999998
30
0
10
92.776458333333352
20
127.67437499999997
30
0
10
90.183541666666684
20
125.53124999999997
30
0
0
SPLINE
5
119
100
AcDbEntity
8
0
100
AcDbSpline
70
4
71
3
72
8
73
4
74
0
42
0.000000001
43
0.0000000001
44
0.0000000001
40
-1
40
-1
40
-1
40
-1
40
0
40
0
40
0
40
0
41
1
41
1
41
1
41
1
10
90.183541666666684
20
125.53124999999997
30
0
10
84.256875000000022
20
120.60999999999996
30
0
10
72.932708333333352
20
119.9220833333333
30
0
10
65.15395833333335
20
123.99666666666664
30
0
0
SPLINE
5
120
100
AcDbEntity
8
0
100
AcDbSpline
70
4
71
3
72
8
73
4
74
0
42
0.000000001
43
0.0000000001
44
0.0000000001
40
-1
40
-1
40
-1
40
-1
40
0
40
0
40
0
40
0
41
1
41
1
41
1
41
1
10
65.15395833333335
20
123.99666666666664
30
0
10
63.169583333333364
20
125.02854166666665
30
0
10
60.073958333333344
20
128.04479166666664
30
0
10
59.09500000000002
20
129.92333333333332
30
0
0
SPLINE
5
121
100
AcDbEntity
8
0
100
AcDbSpline
70
4
71
3
72
8
73
4
74
0
42
0.000000001
43
0.0000000001
44
0.0000000001
40
-1
40
-1
40
-1
40
-1
40
0
40
0
40
0
40
0
41
1
41
1
41
1
41
1
10
160.21875
20
169.16104166666668
30
0
10
161.35645833333339
20
169.76958333333332
30
0
10
162.97041666666672
20
170.43104166666666
30
0
10
163.84354166666668
20
170.6427083333333
30
0
0
SPLINE
5
122
100
AcDbEntity
8
0
100
AcDbSpline
70
4
71
3
72
8
73
4
74
0
42
0.000000001
43
0.0000000001
44
0.0000000001
40
-1
40
-1
40
-1
40
-1
40
0
40
0
40
0
40
0
41
1
41
1
41
1
41
1
10
163.84354166666668
20
170.6427083333333
30
0
10
165.85437500000006
20
171.14541666666668
30
0
10
169.34687500000001
20
170.98666666666668
30
0
10
171.59583333333333
20
170.27229166666666
30
0
0
SPLINE
5
123
100
AcDbEntity
8
0
100
AcDbSpline
70
4
71
3
72
8
73
4
74
0
42
0.000000001
43
0.0000000001
44
0.0000000001
40
-1
40
-1
40
-1
40
-1
40
0
40
0
40
0
40
0
41
1
41
1
41
1
41
1
10
171.59583333333333
20
170.27229166666666
30
0
10
178.79250000000002
20
167.99687499999999
30
0
10
184.4810416666667
20
160.11229166666666
30
0
10
186.59770833333337
20
149.47604166666665
30
0
0
SPLINE
5
124
100
AcDbEntity
8
0
100
AcDbSpline
70
4
71
3
72
8
73
4
74
0
42
0.000000001
43
0.0000000001
44
0.0000000001
40
-1
40
-1
40
-1
40
-1
40
0
40
0
40
0
40
0
41
1
41
1
41
1
41
1
10
186.59770833333337
20
149.47604166666665
30
0
10
187.23270833333339
20
146.19520833333331
30
0
10
187.23270833333339
20
138.78687499999998
30
0
10
186.57125000000005
20
135.45312499999997
30
0
0
SPLINE
5
125
100
AcDbEntity
8
0
100
AcDbSpline
70
4
71
3
72
8
73
4
74
0
42
0.000000001
43
0.0000000001
44
0.0000000001
40
-1
40
-1
40
-1
40
-1
40
0
40
0
40
0
40
0
41
1
41
1
41
1
41
1
10
186.57125000000005
20
135.45312499999997
30
0
10
185.24833333333336
20
128.70624999999995
30
0
10
182.81416666666672
20
123.62624999999997
30
0
10
178.9777083333334
20
119.57812499999996
30
0
0
SPLINE
5
126
100
AcDbEntity
8
0
100
AcDbSpline
70
4
71
3
72
8
73
4
74
0
42
0.000000001
43
0.0000000001
44
0.0000000001
40
-1
40
-1
40
-1
40
-1
40
0
40
0
40
0
40
0
41
1
41
1
41
1
41
1
10
178.9777083333334
20
119.57812499999996
30
0
10
172.0985416666667
20
112.32854166666667
30
0
10
162.86458333333337
20
112.11687499999999
30
0
10
155.82666666666671
20
119.0489583333333
30
0
0
SPLINE
5
127
100
AcDbEntity
8
0
100
AcDbSpline
70
4
71
3
72
8
73
4
74
0
42
0.000000001
43
0.0000000001
44
0.0000000001
40
-1
40
-1
40
-1
40
-1
40
0
40
0
40
0
40
0
41
1
41
1
41
1
41
1
10
155.82666666666671
20
119.0489583333333
30
0
10
152.12250000000006
20
122.72666666666663
30
0
10
149.74125000000004
20
127.198125
30
0
10
148.10083333333336
20
133.73333333333332
30
0
0
SPLINE
5
128
100
AcDbEntity
8
0
100
AcDbSpline
70
4
71
3
72
8
73
4
74
0
42
0.000000001
43
0.0000000001
44
0.0000000001
40
-1
40
-1
40
-1
40
-1
40
0
40
0
40
0
40
0
41
1
41
1
41
1
41
1
10
148.10083333333336
20
133.73333333333332
30
0
10
147.43937500000001
20
136.32625000000002
30
0
10
147.38645833333337
20
136.9083333333333
30
0
10
147.38645833333337
20
142.33229166666663
30
0
0
SPLINE
5
129
100
AcDbEntity
8
0
100
AcDbSpline
70
4
71
3
72
8
73
4
74
0
42
0.000000001
43
0.0000000001
44
0.0000000001
40
-1
40
-1
40
-1
40
-1
40
0
40
0
40
0
40
0
41
1
41
1
41
1
41
1
10
147.38645833333337
20
142.33229166666663
30
0
10
147.38645833333337
20
147.01541666666662
30
0
10
147.49229166666669
20
148.57645833333333
30
0
10
147.86270833333336
20
150.26979166666663
30
0
0
SPLINE
5
130
100
AcDbEntity
8
0
100
AcDbSpline
70
4
71
3
72
8
73
4
74
0
42
0.000000001
43
0.0000000001
44
0.0000000001
40
-1
40
-1
40
-1
40
-1
40
0
40
0
40
0
40
0
41
1
41
1
41
1
41
1
10
147.86270833333336
20
150.26979166666663
30
0
10
149.92645833333336
20
159.37145833333332
30
0
10
154.3185416666667
20
166.11833333333334
30
0
10
160.21875
20
169.16104166666668
30
0
0
LWPOLYLINE
5
131
100
AcDbEntity
8
0
100
AcDbPolyline
90
4
70
1
43
0.0
10
221.84999999999997
20
256.84999999999997
10
-71.849999999999994
20
256.84999999999997
10
-71.849999999999994
20
-36.849999999999987
10
221.84999999999997
20
-36.849999999999987
0
ENDSEC
0
SECTION
2
OBJECTS
0
DICTIONARY
5
C
100
AcDbDictionary
3
ACAD_GROUP
350
D
3
ACAD_MLINESTYLE
350
17
0
DICTIONARY
5
D
100
AcDbDictionary
0
DICTIONARY
5
1A
330
C
100
AcDbDictionary
0
DICTIONARY
5
17
100
AcDbDictionary
0
ENDSEC
0
EOF
